<svg xmlns="http://www.w3.org/2000/svg" viewBox="6057 1245 93.827 40">
  <defs>
    <style>
      .cls-1 {
        fill: #676e77;
      }

      .cls-2 {
        fill: #f9c535;
      }
    </style>
  </defs>
  <g id="Group_1" data-name="Group 1" transform="translate(6057 1245)">
    <path id="Path_1" data-name="Path 1" class="cls-1" d="M4.333,35.632a14.713,14.713,0,0,1,0-20.854,14.783,14.783,0,0,1,19-1.55V3.03a3.092,3.092,0,0,1,6.182,0V36.6a3.1,3.1,0,0,1-6.129.546,14.488,14.488,0,0,1-8.613,2.818A14.784,14.784,0,0,1,4.333,35.632ZM20.749,31.4a8.487,8.487,0,0,0,2.607-5.795v-.7A8.582,8.582,0,0,0,6.2,25.258,8.588,8.588,0,0,0,8.736,31.3a8.482,8.482,0,0,0,6.041,2.5A8.4,8.4,0,0,0,20.749,31.4Z" transform="translate(0 0)"/>
    <path id="Path_2" data-name="Path 2" class="cls-2" d="M212.638,85.885v-.44a11.44,11.44,0,0,1-7.908,3.487,10.977,10.977,0,0,1-8.7-4.069A15.979,15.979,0,0,1,192.7,74.613V62.829a3.065,3.065,0,0,1,6.129,0V74.683a9.04,9.04,0,0,0,1.8,5.9,5.927,5.927,0,0,0,4.808,2.255,6.766,6.766,0,0,0,5.161-2.29,8.243,8.243,0,0,0,2.043-5.707V62.918a2.993,2.993,0,0,1,3.047-3.047,3.135,3.135,0,0,1,2.184.863,3,3,0,0,1,.9,2.184V85.885a2.892,2.892,0,0,1-.934,2.166,3.153,3.153,0,0,1-2.219.934A3,3,0,0,1,212.638,85.885Z" transform="translate(-158.759 -49.267)"/>
    <path id="Path_3" data-name="Path 3" class="cls-1" d="M370.115,85.2a14.67,14.67,0,1,1,10.392,4.315A14.583,14.583,0,0,1,370.115,85.2ZM386.6,80.813a8.612,8.612,0,0,0,0-12.065,8.569,8.569,0,1,0,0,12.065Z" transform="translate(-301.37 -49.514)"/>
  </g>
</svg>
