<svg xmlns="http://www.w3.org/2000/svg" viewBox="4288 1362 30 20.235">
  <defs>
    <style>
      .cls-1 {
        fill: #f2c034;
      }
    </style>
  </defs>
  <path id="ic_multiline_chart_48px" class="cls-1" d="M34,12.88l-2.115-2.115L27.6,15.573A16.163,16.163,0,0,0,15.415,10,17.189,17.189,0,0,0,4,14.5l2.13,2.13A14.083,14.083,0,0,1,15.415,13,13.143,13.143,0,0,1,25.57,17.868L21.25,22.72l-6-6L4,27.985l2.25,2.25,9-9.015,6,6,6.067-6.825a18.51,18.51,0,0,1,2.168,6.825H32.5a20.931,20.931,0,0,0-3.068-9.2Z" transform="translate(4284 1352)"/>
</svg>
